<svg id="visual" viewBox="0 0 900 600" width="900" height="600" xmlns="http://www.w3.org/2000/svg" xmlns:xlink="http://www.w3.org/1999/xlink" version="1.1"><rect x="0" y="0" width="900" height="600" fill="#001220"></rect><defs><linearGradient id="grad1_0" x1="33.3%" y1="0%" x2="100%" y2="100%"><stop offset="20%" stop-color="#001220" stop-opacity="1"></stop><stop offset="80%" stop-color="#001220" stop-opacity="1"></stop></linearGradient></defs><defs><linearGradient id="grad2_0" x1="0%" y1="0%" x2="66.7%" y2="100%"><stop offset="20%" stop-color="#001220" stop-opacity="1"></stop><stop offset="80%" stop-color="#001220" stop-opacity="1"></stop></linearGradient></defs><g transform="translate(900, 0)"><path d="M0 486.7C-66.2 482.1 -132.3 477.5 -186.3 449.7C-240.2 421.9 -281.9 370.9 -323.9 323.9C-365.8 276.8 -408 233.6 -435.1 180.2C-462.3 126.9 -474.5 63.5 -486.7 0L0 0Z" fill="#715DF2"></path></g><g transform="translate(0, 600)"><path d="M0 -486.7C55 -464.4 110 -442.1 175.7 -424.1C241.3 -406 317.6 -392.3 344.2 -344.2C370.8 -296 347.6 -213.5 363.1 -150.4C378.6 -87.3 432.7 -43.6 486.7 0L0 0Z" fill="#715DF2"></path></g></svg>