<svg id="visual" viewBox="0 0 900 600" width="900" height="600" xmlns="http://www.w3.org/2000/svg" xmlns:xlink="http://www.w3.org/1999/xlink" version="1.1"><rect x="0" y="0" width="900" height="600" fill="#001220"></rect><defs><linearGradient id="grad1_0" x1="33.3%" y1="0%" x2="100%" y2="100%"><stop offset="20%" stop-color="#001220" stop-opacity="1"></stop><stop offset="80%" stop-color="#001220" stop-opacity="1"></stop></linearGradient></defs><defs><linearGradient id="grad2_0" x1="0%" y1="0%" x2="66.7%" y2="100%"><stop offset="20%" stop-color="#001220" stop-opacity="1"></stop><stop offset="80%" stop-color="#001220" stop-opacity="1"></stop></linearGradient></defs><g transform="translate(900, 0)"><path d="M0 486.7C-55.7 460.2 -111.4 433.7 -171.4 413.9C-231.5 394.1 -295.8 381.2 -344.2 344.2C-392.6 307.2 -425.1 246.2 -446.2 184.8C-467.3 123.5 -477 61.7 -486.7 0L0 0Z" fill="#FBAE3C"></path></g><g transform="translate(0, 600)"><path d="M0 -486.7C69.3 -485.1 138.5 -483.4 186.3 -449.7C234 -416 260.3 -350.4 304.1 -304.1C347.8 -257.7 409.2 -230.8 442.5 -183.3C475.9 -135.9 481.3 -67.9 486.7 0L0 0Z" fill="#FBAE3C"></path></g></svg>